<?xml version="1.0" standalone="no"?>
<!DOCTYPE svg PUBLIC "-//W3C//DTD SVG 20010904//EN"
 "http://www.w3.org/TR/2001/REC-SVG-20010904/DTD/svg10.dtd">
<svg version="1.0" xmlns="http://www.w3.org/2000/svg"
 width="500.000000pt" height="500.000000pt" viewBox="0 0 500.000000 500.000000"
 preserveAspectRatio="xMidYMid meet">
<metadata>
Created by potrace 1.14, written by Peter Selinger 2001-2017
</metadata>
<g transform="translate(0.000000,500.000000) scale(0.100000,-0.100000)"
fill="#000000" stroke="none">
<path d="M695 4260 c-4 -6 -2 -16 3 -23 5 -7 19 -28 30 -47 11 -19 86 -144
168 -277 109 -177 158 -248 184 -265 19 -13 131 -84 248 -158 262 -166 273
-173 369 -235 43 -27 233 -150 422 -273 190 -124 353 -227 363 -230 23 -6 23
9 1 29 -10 8 -42 42 -72 75 -30 32 -102 111 -162 174 -59 63 -116 125 -126
136 -10 12 -64 70 -119 130 -56 60 -116 125 -134 144 -108 118 -156 160 -364
324 -127 99 -233 183 -236 186 -3 3 -21 17 -40 30 -19 13 -37 27 -40 30 -27
31 -117 83 -284 164 -109 53 -200 96 -202 96 -2 0 -6 -5 -9 -10z"/>
<path d="M1400 4021 c0 -8 85 -87 220 -204 19 -17 73 -65 120 -107 67 -60 333
-291 500 -434 63 -54 333 -269 408 -324 127 -94 131 -86 32 62 -62 91 -83 114
-167 178 -54 40 -104 79 -113 86 -8 6 -168 128 -355 270 -187 141 -406 308
-487 370 -81 61 -149 112 -152 112 -3 0 -6 -4 -6 -9z"/>
<path d="M1196 3402 c-3 -5 70 -111 162 -236 l167 -227 200 -90 c110 -49 216
-97 235 -106 19 -9 78 -35 130 -58 135 -60 473 -212 548 -246 66 -30 82 -34
82 -21 0 5 -123 98 -272 207 -150 110 -389 284 -531 388 -142 103 -279 199
-305 212 -68 34 -400 185 -406 185 -3 0 -7 -4 -10 -8z"/>
<path d="M3327 3270 c-128 -33 -115 -30 -127 -30 -5 0 -10 -7 -10 -15 0 -8 16
-19 38 -24 20 -6 98 -28 173 -49 l135 -38 125 22 c68 12 145 25 172 28 91 14
58 31 -161 85 -115 28 -215 51 -223 50 -8 0 -62 -13 -122 -29z"/>
<path d="M4890 3287 c-3 -3 -23 -7 -45 -11 -22 -3 -51 -8 -65 -11 -22 -4 -301
-59 -355 -69 -35 -7 -199 -38 -225 -43 -134 -25 -224 -43 -228 -48 -5 -5 58
-155 66 -155 5 0 407 146 507 185 33 12 125 46 205 75 164 60 153 55 148 70
-2 6 -6 9 -8 7z"/>
<path d="M2997 3065 c-75 -67 -89 -85 -131 -171 -46 -96 -54 -124 -36 -124 13
0 485 289 485 297 0 8 -191 72 -217 72 -10 1 -55 -33 -101 -74z"/>
<path d="M3408 2973 c-28 -32 -30 -58 -7 -86 11 -15 26 -27 32 -27 7 0 13 -16
14 -37 1 -21 15 -77 30 -125 l28 -87 40 35 c100 89 315 307 315 320 0 11 -22
13 -119 11 l-120 -2 -28 -47 c-17 -29 -39 -51 -57 -58 -37 -13 -49 -4 -32 23
18 28 13 58 -15 79 -27 23 -62 23 -81 1z"/>
<path d="M2480 2910 c0 -11 42 -74 60 -90 3 -3 39 -45 80 -95 41 -49 77 -92
80 -95 38 -36 95 -125 129 -205 42 -97 67 -153 99 -224 l15 -35 39 85 c22 46
74 158 115 249 42 91 98 212 124 269 27 57 49 107 49 112 0 25 -22 13 -267
-157 l-135 -93 -56 42 c-56 41 -295 221 -319 240 -9 6 -13 5 -13 -3z"/>
<path d="M3208 2542 c-140 -381 -137 -373 -123 -378 8 -3 140 83 190 123 6 4
29 21 52 36 36 25 44 38 62 95 46 154 47 167 20 267 -6 22 -12 47 -14 55 -2 8
-7 33 -13 55 -5 22 -13 52 -16 68 -4 15 -12 27 -19 27 -7 0 -66 -149 -139
-348z"/>
<path d="M3884 2739 l-230 -154 -3 -125 c-1 -69 -4 -176 -6 -237 -3 -85 0
-113 9 -113 7 0 39 66 71 148 32 81 62 152 65 157 4 6 15 33 25 60 13 35 59
98 154 210 74 88 139 163 144 166 5 4 7 14 5 24 -2 14 -51 -15 -234 -136z"/>
<path d="M1628 2788 c-4 -11 188 -327 215 -355 10 -9 208 -49 402 -79 17 -3
53 -9 80 -14 61 -12 92 -17 170 -30 57 -9 76 -13 135 -25 109 -21 126 -10 42
30 -62 31 -323 153 -592 277 -36 17 -116 55 -179 84 -62 30 -115 54 -117 54
-2 0 -36 16 -75 35 -83 40 -76 38 -81 23z"/>
<path d="M1950 2300 c0 -5 40 -38 90 -73 94 -67 89 -66 275 -93 17 -2 59 -9
95 -15 61 -10 71 -9 163 21 115 37 125 51 47 64 -19 3 -80 13 -135 22 -55 9
-113 18 -130 20 -16 3 -54 10 -84 15 -30 6 -64 12 -75 14 -88 12 -126 18 -161
26 -53 11 -85 11 -85 -1z"/>
<path d="M3260 2176 l-125 -95 -74 -181 -75 -181 -223 -181 c-123 -99 -223
-187 -223 -194 0 -14 9 -11 302 110 l187 78 94 101 c51 56 144 156 204 223
l111 121 -24 139 c-14 76 -25 143 -27 147 -1 4 -58 -35 -127 -87z"/>
<path d="M1565 2239 c-27 -5 -70 -11 -95 -15 -71 -9 -169 -70 -196 -121 -12
-24 -19 -43 -16 -43 4 0 39 -5 77 -11 154 -22 128 -31 242 83 57 57 103 106
103 110 0 10 -49 8 -115 -3z"/>
<path d="M2837 2022 c-151 -153 -141 -132 -152 -304 -5 -77 -4 -98 6 -98 7 0
59 48 115 107 l102 108 43 153 c27 98 39 156 33 162 -6 6 -58 -39 -147 -128z"/>
<path d="M1774 2072 c-39 -37 -133 -125 -209 -197 -76 -71 -174 -165 -219
-207 -45 -42 -77 -80 -73 -84 6 -7 49 0 137 21 8 2 76 17 150 35 74 17 143 33
153 36 9 2 27 6 40 9 12 2 34 7 50 11 15 3 63 23 107 45 45 21 82 39 84 39 4
0 90 40 286 132 58 27 122 57 143 65 20 8 37 21 37 28 0 13 -23 17 -140 30
-189 20 -244 31 -345 66 -60 21 -114 39 -120 39 -5 0 -42 -31 -81 -68z"/>
<path d="M440 2076 c0 -9 1 -16 3 -16 1 0 103 -34 226 -75 123 -41 230 -75
239 -75 34 0 242 73 242 85 0 8 -25 15 -72 19 -77 8 -94 10 -223 25 -44 6
-109 13 -145 16 -36 4 -78 9 -95 11 -16 2 -59 6 -95 10 -36 3 -68 8 -72 11 -5
2 -8 -3 -8 -11z"/>
<path d="M245 2003 c3 -32 8 -72 11 -89 4 -31 3 -33 -76 -69 -116 -55 -105
-70 27 -39 47 11 95 14 156 11 48 -3 87 -3 87 -1 0 2 -33 46 -72 97 -40 52
-82 106 -93 120 -33 45 -47 35 -40 -30z"/>
<path d="M2445 1900 c-77 -38 -218 -106 -313 -151 -120 -57 -172 -87 -170 -97
2 -8 12 -16 23 -18 11 -2 82 -19 159 -38 l139 -34 106 24 c58 14 130 30 159
36 46 10 52 14 53 37 2 66 9 230 12 269 3 33 0 42 -12 41 -9 0 -79 -31 -156
-69z"/>
<path d="M1215 1881 c-93 -25 -176 -50 -183 -55 -21 -13 -144 -204 -138 -214
3 -6 47 3 103 19 54 17 105 32 113 34 8 3 29 8 47 12 22 6 69 44 148 121 63
62 115 117 115 122 0 16 -26 11 -205 -39z"/>
<path d="M540 1842 c0 -7 95 -95 129 -119 2 -2 -8 -33 -22 -70 -14 -38 -29
-76 -33 -85 -4 -12 -1 -18 7 -18 8 0 36 33 63 73 32 47 72 91 113 122 35 26
61 50 59 53 -3 2 -16 6 -28 7 -13 2 -50 8 -83 15 -68 13 -79 15 -152 25 -35 5
-53 4 -53 -3z"/>
<path d="M387 1604 c-66 -18 -120 -34 -122 -36 -14 -16 -75 -119 -75 -128 0
-15 23 -12 107 13 66 20 82 30 148 93 40 39 70 75 67 81 -5 7 -46 0 -125 -23z"/>
<path d="M960 1412 c-69 -37 -147 -78 -173 -92 -26 -14 -47 -28 -47 -32 0 -13
29 -9 114 16 44 14 99 30 122 35 32 9 51 23 87 70 41 51 48 71 28 71 -3 0 -62
-31 -131 -68z"/>
<path d="M1601 1434 c-68 -19 -131 -36 -140 -38 -9 -1 -27 -6 -41 -10 -28 -7
-105 -13 -196 -15 l-60 -1 -77 -105 c-42 -57 -77 -107 -77 -111 0 -3 33 -3 73
0 39 4 107 9 151 11 l79 5 218 138 c194 122 248 164 207 161 -7 0 -69 -16
-137 -35z"/>
<path d="M2469 1466 c-3 -3 -18 -7 -34 -11 -115 -22 -609 -153 -613 -163 -3
-9 48 -10 210 -7 117 3 230 8 251 10 28 3 63 24 136 82 55 43 97 81 95 85 -6
9 -38 11 -45 4z"/>
<path d="M612 1389 c-58 -11 -100 -38 -111 -71 -10 -27 -9 -28 22 -29 18 0 44
-3 59 -5 22 -4 37 5 79 45 69 67 58 81 -49 60z"/>
<path d="M1425 1205 c-116 -61 -150 -75 -202 -79 -176 -17 -236 -26 -243 -36
-5 -8 -151 -166 -252 -274 -51 -54 -70 -86 -52 -86 4 0 128 46 277 103 290
110 263 95 427 241 19 17 75 67 125 110 49 44 92 83 93 88 9 21 -44 1 -173
-67z"/>
<path d="M360 1182 c0 -6 37 -23 83 -40 160 -57 153 -56 223 -37 57 15 83 30
73 40 -5 4 -57 12 -134 20 -33 4 -71 8 -85 10 -93 13 -160 16 -160 7z"/>
</g>
</svg>
